<mxfile host="app.diagrams.net" modified="2023-12-12T17:15:59.778Z" agent="Mozilla/5.0 (Windows NT 10.0; Win64; x64) AppleWebKit/537.36 (KHTML, like Gecko) Chrome/119.0.0.0 Safari/537.36" etag="2Kr7LPSalK9j0w4CO8qW" version="22.1.7" type="github">
  <diagram id="prtHgNgQTEPvFCAcTncT" name="Page-1">
    <mxGraphModel dx="1434" dy="780" grid="1" gridSize="10" guides="1" tooltips="1" connect="1" arrows="1" fold="1" page="1" pageScale="1" pageWidth="827" pageHeight="1169" math="0" shadow="0">
      <root>
        <mxCell id="0" />
        <mxCell id="1" parent="0" />
        <mxCell id="AH3x_OhnH32QN5J2P94V-11" value="Orgchart" style="swimlane;startSize=20;horizontal=1;containerType=tree;newEdgeStyle={&quot;edgeStyle&quot;:&quot;elbowEdgeStyle&quot;,&quot;startArrow&quot;:&quot;none&quot;,&quot;endArrow&quot;:&quot;none&quot;};" vertex="1" parent="1">
          <mxGeometry y="40" width="760" height="780" as="geometry" />
        </mxCell>
        <mxCell id="AH3x_OhnH32QN5J2P94V-12" value="" style="edgeStyle=elbowEdgeStyle;elbow=vertical;sourcePerimeterSpacing=0;targetPerimeterSpacing=0;startArrow=none;endArrow=none;rounded=0;curved=0;" edge="1" parent="AH3x_OhnH32QN5J2P94V-11" source="AH3x_OhnH32QN5J2P94V-14" target="AH3x_OhnH32QN5J2P94V-15">
          <mxGeometry relative="1" as="geometry" />
        </mxCell>
        <mxCell id="AH3x_OhnH32QN5J2P94V-13" value="" style="edgeStyle=elbowEdgeStyle;elbow=vertical;sourcePerimeterSpacing=0;targetPerimeterSpacing=0;startArrow=none;endArrow=none;rounded=0;curved=0;" edge="1" parent="AH3x_OhnH32QN5J2P94V-11" source="AH3x_OhnH32QN5J2P94V-14" target="AH3x_OhnH32QN5J2P94V-16">
          <mxGeometry relative="1" as="geometry" />
        </mxCell>
        <UserObject label="CEO/ FOUNDER" treeRoot="1" id="AH3x_OhnH32QN5J2P94V-14">
          <mxCell style="whiteSpace=wrap;html=1;align=center;treeFolding=1;treeMoving=1;newEdgeStyle={&quot;edgeStyle&quot;:&quot;elbowEdgeStyle&quot;,&quot;startArrow&quot;:&quot;none&quot;,&quot;endArrow&quot;:&quot;none&quot;};" vertex="1" parent="AH3x_OhnH32QN5J2P94V-11">
            <mxGeometry x="300" y="30" width="120" height="60" as="geometry" />
          </mxCell>
        </UserObject>
        <mxCell id="AH3x_OhnH32QN5J2P94V-22" style="edgeStyle=elbowEdgeStyle;rounded=0;orthogonalLoop=1;jettySize=auto;html=1;startArrow=none;endArrow=none;exitX=0.5;exitY=1;exitDx=0;exitDy=0;entryX=0;entryY=0.5;entryDx=0;entryDy=0;" edge="1" parent="AH3x_OhnH32QN5J2P94V-11" source="AH3x_OhnH32QN5J2P94V-15" target="AH3x_OhnH32QN5J2P94V-19">
          <mxGeometry relative="1" as="geometry">
            <Array as="points">
              <mxPoint x="70" y="300" />
              <mxPoint x="80" y="350" />
            </Array>
          </mxGeometry>
        </mxCell>
        <mxCell id="AH3x_OhnH32QN5J2P94V-54" style="edgeStyle=elbowEdgeStyle;rounded=0;orthogonalLoop=1;jettySize=auto;html=1;startArrow=none;endArrow=none;exitX=0.25;exitY=1;exitDx=0;exitDy=0;entryX=0;entryY=0.5;entryDx=0;entryDy=0;" edge="1" parent="AH3x_OhnH32QN5J2P94V-11" source="AH3x_OhnH32QN5J2P94V-15" target="AH3x_OhnH32QN5J2P94V-47">
          <mxGeometry relative="1" as="geometry" />
        </mxCell>
        <mxCell id="AH3x_OhnH32QN5J2P94V-55" style="edgeStyle=elbowEdgeStyle;rounded=0;orthogonalLoop=1;jettySize=auto;html=1;startArrow=none;endArrow=none;exitX=0.25;exitY=1;exitDx=0;exitDy=0;entryX=0;entryY=0.5;entryDx=0;entryDy=0;" edge="1" parent="AH3x_OhnH32QN5J2P94V-11" source="AH3x_OhnH32QN5J2P94V-15" target="AH3x_OhnH32QN5J2P94V-20">
          <mxGeometry relative="1" as="geometry" />
        </mxCell>
        <mxCell id="AH3x_OhnH32QN5J2P94V-15" value="Chief Financial Officer" style="whiteSpace=wrap;html=1;align=center;verticalAlign=middle;treeFolding=1;treeMoving=1;newEdgeStyle={&quot;edgeStyle&quot;:&quot;elbowEdgeStyle&quot;,&quot;startArrow&quot;:&quot;none&quot;,&quot;endArrow&quot;:&quot;none&quot;};" vertex="1" parent="AH3x_OhnH32QN5J2P94V-11">
          <mxGeometry x="20" y="140" width="100" height="60" as="geometry" />
        </mxCell>
        <mxCell id="AH3x_OhnH32QN5J2P94V-38" style="edgeStyle=elbowEdgeStyle;rounded=0;orthogonalLoop=1;jettySize=auto;html=1;startArrow=none;endArrow=none;exitX=0.25;exitY=1;exitDx=0;exitDy=0;entryX=0;entryY=0.5;entryDx=0;entryDy=0;" edge="1" parent="AH3x_OhnH32QN5J2P94V-11" source="AH3x_OhnH32QN5J2P94V-16" target="AH3x_OhnH32QN5J2P94V-28">
          <mxGeometry relative="1" as="geometry" />
        </mxCell>
        <mxCell id="AH3x_OhnH32QN5J2P94V-43" style="edgeStyle=elbowEdgeStyle;rounded=0;orthogonalLoop=1;jettySize=auto;html=1;startArrow=none;endArrow=none;exitX=0.25;exitY=1;exitDx=0;exitDy=0;entryX=0;entryY=0.75;entryDx=0;entryDy=0;" edge="1" parent="AH3x_OhnH32QN5J2P94V-11" source="AH3x_OhnH32QN5J2P94V-16" target="AH3x_OhnH32QN5J2P94V-27">
          <mxGeometry relative="1" as="geometry" />
        </mxCell>
        <mxCell id="AH3x_OhnH32QN5J2P94V-44" style="edgeStyle=elbowEdgeStyle;rounded=0;orthogonalLoop=1;jettySize=auto;html=1;startArrow=none;endArrow=none;exitX=0.25;exitY=1;exitDx=0;exitDy=0;entryX=0;entryY=0.5;entryDx=0;entryDy=0;" edge="1" parent="AH3x_OhnH32QN5J2P94V-11" source="AH3x_OhnH32QN5J2P94V-16" target="AH3x_OhnH32QN5J2P94V-30">
          <mxGeometry relative="1" as="geometry" />
        </mxCell>
        <mxCell id="AH3x_OhnH32QN5J2P94V-45" style="edgeStyle=elbowEdgeStyle;rounded=0;orthogonalLoop=1;jettySize=auto;html=1;startArrow=none;endArrow=none;exitX=0.25;exitY=1;exitDx=0;exitDy=0;entryX=0;entryY=0.5;entryDx=0;entryDy=0;" edge="1" parent="AH3x_OhnH32QN5J2P94V-11" source="AH3x_OhnH32QN5J2P94V-16" target="AH3x_OhnH32QN5J2P94V-33">
          <mxGeometry relative="1" as="geometry" />
        </mxCell>
        <mxCell id="AH3x_OhnH32QN5J2P94V-56" style="edgeStyle=elbowEdgeStyle;rounded=0;orthogonalLoop=1;jettySize=auto;html=1;startArrow=none;endArrow=none;exitX=0.25;exitY=1;exitDx=0;exitDy=0;entryX=0;entryY=0.5;entryDx=0;entryDy=0;" edge="1" parent="AH3x_OhnH32QN5J2P94V-11" source="AH3x_OhnH32QN5J2P94V-16" target="AH3x_OhnH32QN5J2P94V-29">
          <mxGeometry relative="1" as="geometry" />
        </mxCell>
        <mxCell id="AH3x_OhnH32QN5J2P94V-59" style="edgeStyle=elbowEdgeStyle;rounded=0;orthogonalLoop=1;jettySize=auto;html=1;startArrow=none;endArrow=none;exitX=0.25;exitY=1;exitDx=0;exitDy=0;entryX=0;entryY=0.5;entryDx=0;entryDy=0;" edge="1" parent="AH3x_OhnH32QN5J2P94V-11" source="AH3x_OhnH32QN5J2P94V-16" target="AH3x_OhnH32QN5J2P94V-57">
          <mxGeometry relative="1" as="geometry" />
        </mxCell>
        <mxCell id="AH3x_OhnH32QN5J2P94V-61" style="edgeStyle=elbowEdgeStyle;rounded=0;orthogonalLoop=1;jettySize=auto;html=1;startArrow=none;endArrow=none;exitX=0.25;exitY=1;exitDx=0;exitDy=0;entryX=0;entryY=0.5;entryDx=0;entryDy=0;" edge="1" parent="AH3x_OhnH32QN5J2P94V-11" source="AH3x_OhnH32QN5J2P94V-16" target="AH3x_OhnH32QN5J2P94V-58">
          <mxGeometry relative="1" as="geometry" />
        </mxCell>
        <mxCell id="AH3x_OhnH32QN5J2P94V-16" value="Chief Technology Officer" style="whiteSpace=wrap;html=1;align=center;verticalAlign=middle;treeFolding=1;treeMoving=1;newEdgeStyle={&quot;edgeStyle&quot;:&quot;elbowEdgeStyle&quot;,&quot;startArrow&quot;:&quot;none&quot;,&quot;endArrow&quot;:&quot;none&quot;};" vertex="1" parent="AH3x_OhnH32QN5J2P94V-11">
          <mxGeometry x="210" y="140" width="100" height="60" as="geometry" />
        </mxCell>
        <mxCell id="AH3x_OhnH32QN5J2P94V-19" value="Administrator" style="whiteSpace=wrap;html=1;align=center;verticalAlign=middle;treeFolding=1;treeMoving=1;newEdgeStyle={&quot;edgeStyle&quot;:&quot;elbowEdgeStyle&quot;,&quot;startArrow&quot;:&quot;none&quot;,&quot;endArrow&quot;:&quot;none&quot;};" vertex="1" parent="AH3x_OhnH32QN5J2P94V-11">
          <mxGeometry x="96" y="320" width="100" height="40" as="geometry" />
        </mxCell>
        <mxCell id="AH3x_OhnH32QN5J2P94V-20" value="HR Manager" style="whiteSpace=wrap;html=1;align=center;verticalAlign=middle;treeFolding=1;treeMoving=1;newEdgeStyle={&quot;edgeStyle&quot;:&quot;elbowEdgeStyle&quot;,&quot;startArrow&quot;:&quot;none&quot;,&quot;endArrow&quot;:&quot;none&quot;};" vertex="1" parent="AH3x_OhnH32QN5J2P94V-11">
          <mxGeometry x="96" y="400" width="100" height="40" as="geometry" />
        </mxCell>
        <mxCell id="AH3x_OhnH32QN5J2P94V-26" value="Chief Marketing Officer" style="whiteSpace=wrap;html=1;align=center;verticalAlign=middle;treeFolding=1;treeMoving=1;newEdgeStyle={&quot;edgeStyle&quot;:&quot;elbowEdgeStyle&quot;,&quot;startArrow&quot;:&quot;none&quot;,&quot;endArrow&quot;:&quot;none&quot;};" vertex="1" parent="AH3x_OhnH32QN5J2P94V-11">
          <mxGeometry x="610" y="140" width="100" height="60" as="geometry" />
        </mxCell>
        <mxCell id="AH3x_OhnH32QN5J2P94V-25" value="Chief Operations Officer" style="whiteSpace=wrap;html=1;align=center;verticalAlign=middle;treeFolding=1;treeMoving=1;newEdgeStyle={&quot;edgeStyle&quot;:&quot;elbowEdgeStyle&quot;,&quot;startArrow&quot;:&quot;none&quot;,&quot;endArrow&quot;:&quot;none&quot;};" vertex="1" parent="AH3x_OhnH32QN5J2P94V-11">
          <mxGeometry x="430" y="140" width="100" height="60" as="geometry" />
        </mxCell>
        <mxCell id="AH3x_OhnH32QN5J2P94V-29" value="Research and Development" style="whiteSpace=wrap;html=1;align=center;verticalAlign=middle;treeFolding=1;treeMoving=1;newEdgeStyle={&quot;edgeStyle&quot;:&quot;elbowEdgeStyle&quot;,&quot;startArrow&quot;:&quot;none&quot;,&quot;endArrow&quot;:&quot;none&quot;};" vertex="1" collapsed="1" parent="AH3x_OhnH32QN5J2P94V-11">
          <mxGeometry x="260" y="240" width="100" height="40" as="geometry" />
        </mxCell>
        <mxCell id="AH3x_OhnH32QN5J2P94V-28" value="Product Manager" style="whiteSpace=wrap;html=1;align=center;verticalAlign=middle;treeFolding=1;treeMoving=1;newEdgeStyle={&quot;edgeStyle&quot;:&quot;elbowEdgeStyle&quot;,&quot;startArrow&quot;:&quot;none&quot;,&quot;endArrow&quot;:&quot;none&quot;};" vertex="1" parent="AH3x_OhnH32QN5J2P94V-11">
          <mxGeometry x="260" y="320" width="100" height="40" as="geometry" />
        </mxCell>
        <mxCell id="AH3x_OhnH32QN5J2P94V-27" value="AI Lead Engineer" style="whiteSpace=wrap;html=1;align=center;verticalAlign=middle;treeFolding=1;treeMoving=1;newEdgeStyle={&quot;edgeStyle&quot;:&quot;elbowEdgeStyle&quot;,&quot;startArrow&quot;:&quot;none&quot;,&quot;endArrow&quot;:&quot;none&quot;};" vertex="1" parent="AH3x_OhnH32QN5J2P94V-11">
          <mxGeometry x="260" y="400" width="100" height="40" as="geometry" />
        </mxCell>
        <mxCell id="AH3x_OhnH32QN5J2P94V-30" value="Data Scientists" style="whiteSpace=wrap;html=1;align=center;verticalAlign=middle;treeFolding=1;treeMoving=1;newEdgeStyle={&quot;edgeStyle&quot;:&quot;elbowEdgeStyle&quot;,&quot;startArrow&quot;:&quot;none&quot;,&quot;endArrow&quot;:&quot;none&quot;};" vertex="1" parent="AH3x_OhnH32QN5J2P94V-11">
          <mxGeometry x="260" y="470" width="100" height="35" as="geometry" />
        </mxCell>
        <mxCell id="AH3x_OhnH32QN5J2P94V-33" value="Data Analysts" style="whiteSpace=wrap;html=1;align=center;verticalAlign=middle;treeFolding=1;treeMoving=1;newEdgeStyle={&quot;edgeStyle&quot;:&quot;elbowEdgeStyle&quot;,&quot;startArrow&quot;:&quot;none&quot;,&quot;endArrow&quot;:&quot;none&quot;};" vertex="1" parent="AH3x_OhnH32QN5J2P94V-11">
          <mxGeometry x="260" y="540" width="100" height="35" as="geometry" />
        </mxCell>
        <mxCell id="AH3x_OhnH32QN5J2P94V-37" value="Finance Manager" style="whiteSpace=wrap;html=1;align=center;verticalAlign=middle;treeFolding=1;treeMoving=1;newEdgeStyle={&quot;edgeStyle&quot;:&quot;elbowEdgeStyle&quot;,&quot;startArrow&quot;:&quot;none&quot;,&quot;endArrow&quot;:&quot;none&quot;};" vertex="1" parent="AH3x_OhnH32QN5J2P94V-11">
          <mxGeometry x="460" y="242.5" width="100" height="35" as="geometry" />
        </mxCell>
        <mxCell id="AH3x_OhnH32QN5J2P94V-36" value="Finance Manager" style="whiteSpace=wrap;html=1;align=center;verticalAlign=middle;treeFolding=1;treeMoving=1;newEdgeStyle={&quot;edgeStyle&quot;:&quot;elbowEdgeStyle&quot;,&quot;startArrow&quot;:&quot;none&quot;,&quot;endArrow&quot;:&quot;none&quot;};" vertex="1" parent="AH3x_OhnH32QN5J2P94V-11">
          <mxGeometry x="460" y="320" width="100" height="35" as="geometry" />
        </mxCell>
        <mxCell id="AH3x_OhnH32QN5J2P94V-35" value="Finance Manager" style="whiteSpace=wrap;html=1;align=center;verticalAlign=middle;treeFolding=1;treeMoving=1;newEdgeStyle={&quot;edgeStyle&quot;:&quot;elbowEdgeStyle&quot;,&quot;startArrow&quot;:&quot;none&quot;,&quot;endArrow&quot;:&quot;none&quot;};" vertex="1" parent="AH3x_OhnH32QN5J2P94V-11">
          <mxGeometry x="460" y="400" width="100" height="35" as="geometry" />
        </mxCell>
        <mxCell id="AH3x_OhnH32QN5J2P94V-34" value="Finance Manager" style="whiteSpace=wrap;html=1;align=center;verticalAlign=middle;treeFolding=1;treeMoving=1;newEdgeStyle={&quot;edgeStyle&quot;:&quot;elbowEdgeStyle&quot;,&quot;startArrow&quot;:&quot;none&quot;,&quot;endArrow&quot;:&quot;none&quot;};" vertex="1" parent="AH3x_OhnH32QN5J2P94V-11">
          <mxGeometry x="460" y="470" width="100" height="35" as="geometry" />
        </mxCell>
        <mxCell id="AH3x_OhnH32QN5J2P94V-47" value="Finance Manager" style="whiteSpace=wrap;html=1;align=center;verticalAlign=middle;treeFolding=1;treeMoving=1;newEdgeStyle={&quot;edgeStyle&quot;:&quot;elbowEdgeStyle&quot;,&quot;startArrow&quot;:&quot;none&quot;,&quot;endArrow&quot;:&quot;none&quot;};" vertex="1" parent="AH3x_OhnH32QN5J2P94V-11">
          <mxGeometry x="96" y="240" width="100" height="40" as="geometry" />
        </mxCell>
        <mxCell id="AH3x_OhnH32QN5J2P94V-58" value="Electrical Design Engineer" style="whiteSpace=wrap;html=1;align=center;verticalAlign=middle;treeFolding=1;treeMoving=1;newEdgeStyle={&quot;edgeStyle&quot;:&quot;elbowEdgeStyle&quot;,&quot;startArrow&quot;:&quot;none&quot;,&quot;endArrow&quot;:&quot;none&quot;};" vertex="1" parent="AH3x_OhnH32QN5J2P94V-11">
          <mxGeometry x="260" y="670" width="110" height="40" as="geometry" />
        </mxCell>
        <mxCell id="AH3x_OhnH32QN5J2P94V-57" value="Civil Design Engineer" style="whiteSpace=wrap;html=1;align=center;verticalAlign=middle;treeFolding=1;treeMoving=1;newEdgeStyle={&quot;edgeStyle&quot;:&quot;elbowEdgeStyle&quot;,&quot;startArrow&quot;:&quot;none&quot;,&quot;endArrow&quot;:&quot;none&quot;};" vertex="1" parent="AH3x_OhnH32QN5J2P94V-11">
          <mxGeometry x="260" y="600" width="100" height="35" as="geometry" />
        </mxCell>
      </root>
    </mxGraphModel>
  </diagram>
</mxfile>
